<svg width="50.000000" height="50.000000" viewBox="0 0 50 50" fill="none" xmlns="http://www.w3.org/2000/svg" xmlns:xlink="http://www.w3.org/1999/xlink">
	<desc>
			Created with Pixso.
	</desc>
	<defs/>
	<path id="Icon" d="M25 0C25.96 0 26.74 0.78 26.74 1.74L26.74 4.06C26.74 5.03 25.96 5.81 25 5.81C24.03 5.81 23.25 5.03 23.25 4.06L23.25 1.74C23.25 0.78 24.03 0 25 0ZM43.18 8.55C43.18 9 43.01 9.44 42.67 9.78L41.03 11.43C40.35 12.11 39.24 12.11 38.56 11.43C38.22 11.09 38.05 10.64 38.05 10.2C38.05 9.75 38.22 9.3 38.56 8.96L40.21 7.32C40.89 6.64 41.99 6.64 42.67 7.32C43.01 7.66 43.18 8.1 43.18 8.55ZM7.32 7.32C8 6.64 9.1 6.64 9.78 7.32L11.43 8.96C11.77 9.3 11.94 9.75 11.94 10.2C11.94 10.64 11.77 11.09 11.43 11.43C10.75 12.11 9.64 12.11 8.96 11.43L7.32 9.78C6.98 9.44 6.81 9 6.81 8.55C6.81 8.1 6.98 7.66 7.32 7.32ZM11.62 25C11.62 17.61 17.61 11.62 25 11.62C32.38 11.62 38.37 17.61 38.37 25C38.37 32.38 32.38 38.37 25 38.37C17.61 38.37 11.62 32.38 11.62 25ZM5.81 25C5.81 25.96 5.03 26.74 4.06 26.74L1.74 26.74C0.78 26.74 0 25.96 0 25C0 24.03 0.78 23.25 1.74 23.25L4.06 23.25C5.03 23.25 5.81 24.03 5.81 25ZM50 25C50 25.96 49.21 26.74 48.25 26.74L45.93 26.74C44.96 26.74 44.18 25.96 44.18 25C44.18 24.03 44.96 23.25 45.93 23.25L48.25 23.25C49.21 23.25 50 24.03 50 25ZM11.94 39.79C11.94 40.24 11.77 40.69 11.43 41.03L9.78 42.67C9.1 43.35 8 43.35 7.32 42.67C6.98 42.33 6.81 41.89 6.81 41.44C6.81 40.99 6.98 40.55 7.32 40.21L8.96 38.56C9.64 37.88 10.75 37.88 11.43 38.56C11.77 38.9 11.94 39.35 11.94 39.79ZM38.56 38.56C39.24 37.88 40.35 37.88 41.03 38.56L42.67 40.21C43.01 40.55 43.18 40.99 43.18 41.44C43.18 41.89 43.01 42.33 42.67 42.67C41.99 43.35 40.89 43.35 40.21 42.67L38.56 41.03C38.22 40.69 38.05 40.24 38.05 39.79C38.05 39.35 38.22 38.9 38.56 38.56ZM25 44.18C25.96 44.18 26.74 44.96 26.74 45.93L26.74 48.25C26.74 49.21 25.96 50 25 50C24.03 50 23.25 49.21 23.25 48.25L23.25 45.93C23.25 44.96 24.03 44.18 25 44.18Z" fill="#F5C678" fill-opacity="1.000000" fill-rule="evenodd"/>
</svg>
